<?xml version="1.0" encoding="iso-8859-1"?>
<!-- Uploaded to: SVG Repo, www.svgrepo.com, Generator: SVG Repo Mixer Tools -->
<svg fill="#000000" height="800px" width="800px" version="1.1" id="Layer_1" xmlns="http://www.w3.org/2000/svg" xmlns:xlink="http://www.w3.org/1999/xlink" 
	 viewBox="0 0 512 512" xml:space="preserve">
<g transform="translate(1 1)">
	<g>
		<g>
			<path d="M417.133-1H92.867c-14.507,0-25.6,11.093-25.6,25.6v460.8c0,14.507,11.093,25.6,25.6,25.6h324.267
				c14.507,0,25.6-11.093,25.6-25.6V24.6C442.733,10.093,431.64-1,417.133-1z M425.667,485.4c0,5.12-3.413,8.533-8.533,8.533H92.867
				c-5.12,0-8.533-3.413-8.533-8.533V24.6c0-5.12,3.413-8.533,8.533-8.533h324.267c5.12,0,8.533,3.413,8.533,8.533V485.4z"/>
			<path d="M400.067,33.133H203.8c-5.12,0-8.533,3.413-8.533,8.533S198.68,50.2,203.8,50.2h187.733v281.6
				c0,5.12,3.413,8.533,8.533,8.533c5.12,0,8.533-3.413,8.533-8.533V41.667C408.6,36.547,405.187,33.133,400.067,33.133z"/>
			<path d="M306.2,459.8H118.467V178.2c0-5.12-3.413-8.533-8.533-8.533s-8.533,3.413-8.533,8.533v290.133
				c0,5.12,3.413,8.533,8.533,8.533H306.2c5.12,0,8.533-3.413,8.533-8.533S311.32,459.8,306.2,459.8z"/>
			<path d="M316.44,179.053c-4.267-25.6-23.893-46.08-49.493-51.2c-18.773-4.267-38.4,0.853-52.907,12.8
				C199.533,152.6,191,170.52,191,189.293c0,8.533,1.707,17.067,5.12,24.747c-10.24,0.853-20.48,4.267-29.867,10.24
				c-18.773,11.947-30.72,29.867-31.573,49.493c-0.853,17.067,5.12,33.28,17.067,46.08c11.947,12.8,29.867,20.48,47.787,20.48
				c6.827,0,12.8-0.853,18.773-2.56c-0.853,5.12-2.56,9.387-5.12,13.653l-5.973,12.8c-1.707,4.267-1.707,9.387,0.853,12.8
				c2.56,3.413,6.827,5.973,11.093,5.973h71.68c4.267,0,8.533-2.56,10.24-5.973c2.56-4.267,2.56-8.533,0.853-12.8l-5.973-12.8
				c-2.56-4.267-4.267-8.533-5.12-13.653c5.973,2.56,11.947,3.413,18.773,3.413c17.92,0,34.987-6.827,47.787-20.48
				c11.947-12.8,17.92-29.013,17.067-46.08c-1.707-19.627-12.8-37.547-31.573-49.493c-10.24-5.973-20.48-9.387-30.72-10.24
				C317.293,203.8,318.147,191,316.44,179.053z M335.213,238.787c13.653,9.387,22.187,22.187,23.04,35.84
				c0,11.947-4.267,23.893-12.8,33.28c-9.387,9.387-22.187,15.36-35.84,15.36c-8.533,0-17.067-2.56-23.893-7.68l-13.653-9.387
				v17.067c0,11.947,2.56,24.747,8.533,35.84l3.413,6.827h-58.027l3.413-6.827c5.973-11.093,8.533-23.04,8.533-35.84V306.2
				l-12.8,9.387c-6.827,5.12-15.36,7.68-23.893,7.68c-13.653,0-26.453-5.12-35.84-15.36c-8.533-9.387-12.8-21.333-11.947-33.28
				c0.853-13.653,10.24-27.307,23.893-35.84c11.093-6.827,23.04-9.387,34.987-5.973l25.6,5.973l-17.067-19.627
				c-6.827-8.533-11.093-18.773-11.093-29.867c0-14.507,6.827-27.307,17.067-35.84c11.093-8.533,24.747-11.947,38.4-9.387
				c17.92,4.267,32.427,18.773,35.84,37.547c2.56,13.653-1.707,27.307-10.24,37.547l-17.067,19.627l25.6-5.973
				C312.173,229.4,324.12,231.107,335.213,238.787z"/>
			<path d="M106.52,126.147c4.267,1.707,9.387,0,11.093-4.267l9.205-20.488c0.062,0.001,0.12,0.008,0.182,0.008h34.133
				c0.062,0,0.121-0.007,0.182-0.008l9.205,20.488c1.707,3.413,4.267,5.12,7.68,5.12c0.853,0,2.56,0,3.413-0.853
				c4.267-1.707,5.973-6.827,4.267-11.093l-34.133-76.8c-0.853-3.413-4.267-5.12-7.68-5.12s-6.827,1.707-7.68,5.12l-34.133,76.8
				C100.547,119.32,102.253,124.44,106.52,126.147z M144.067,63l9.585,21.333h-19.169L144.067,63z"/>
			<path d="M403.48,383.853c-4.267-1.707-9.387,0-11.093,4.267l-9.205,20.488c-0.062-0.001-0.12-0.008-0.182-0.008h-34.133
				c-0.062,0-0.121,0.007-0.182,0.008l-9.205-20.488c-1.707-4.267-6.827-5.973-11.093-4.267s-5.973,6.827-4.267,11.093l34.133,76.8
				c0.853,3.413,4.267,5.12,7.68,5.12s6.827-1.707,7.68-5.12l34.133-76.8C409.453,390.68,407.747,385.56,403.48,383.853z
				 M365.933,447l-9.585-21.333h19.169L365.933,447z"/>
		</g>
	</g>
</g>
</svg>